{
  "asset": {
    "version": "2.0",
    "generator": "THREE.GLTFExporter"
  },
  "scenes": [
    {
      "name": "Scene",
      "nodes": [
        7,
        8
      ]
    }
  ],
  "scene": 0,
  "nodes": [
    {
      "name": "console_mesh",
      "mesh": 0
    },
    {
      "name": "console_mesh_1",
      "mesh": 1
    },
    {
      "name": "console_mesh_2",
      "mesh": 2
    },
    {
      "name": "console_mesh_3",
      "mesh": 3
    },
    {
      "name": "console_mesh_4",
      "mesh": 4
    },
    {
      "name": "console_mesh_5",
      "mesh": 5
    },
    {
      "matrix": [
        1,
        0,
        0,
        0,
        0,
        -1.3435885648505064e-7,
        0.9999999657714511,
        0,
        0,
        -0.9999999657714511,
        -1.3435885648505064e-7,
        0,
        0,
        0,
        0,
        1
      ],
      "name": "console",
      "extras": {
        "name": "console"
      },
      "children": [
        0,
        1,
        2,
        3,
        4,
        5
      ]
    },
    {
      "name": "consoleScene.glb",
      "children": [
        6
      ]
    },
    {
      "matrix": [
        1,
        0,
        0,
        0,
        0,
        1,
        0,
        0,
        0,
        0,
        1,
        0,
        0,
        3.54904207840679,
        0,
        1
      ],
      "name": "AmbientLight"
    }
  ],
  "bufferViews": [
    {
      "buffer": 0,
      "byteOffset": 0,
      "byteLength": 288144,
      "target": 34962,
      "byteStride": 12
    },
    {
      "buffer": 0,
      "byteOffset": 288144,
      "byteLength": 288144,
      "target": 34962,
      "byteStride": 12
    },
    {
      "buffer": 0,
      "byteOffset": 576288,
      "byteLength": 192096,
      "target": 34962,
      "byteStride": 8
    },
    {
      "buffer": 0,
      "byteOffset": 768384,
      "byteLength": 172344,
      "target": 34963
    },
    {
      "buffer": 0,
      "byteOffset": 940728,
      "byteLength": 5616,
      "target": 34962,
      "byteStride": 12
    },
    {
      "buffer": 0,
      "byteOffset": 946344,
      "byteLength": 5616,
      "target": 34962,
      "byteStride": 12
    },
    {
      "buffer": 0,
      "byteOffset": 951960,
      "byteLength": 3744,
      "target": 34962,
      "byteStride": 8
    },
    {
      "buffer": 0,
      "byteOffset": 955704,
      "byteLength": 3000,
      "target": 34963
    },
    {
      "buffer": 0,
      "byteOffset": 958704,
      "byteLength": 10560,
      "target": 34962,
      "byteStride": 12
    },
    {
      "buffer": 0,
      "byteOffset": 969264,
      "byteLength": 10560,
      "target": 34962,
      "byteStride": 12
    },
    {
      "buffer": 0,
      "byteOffset": 979824,
      "byteLength": 7040,
      "target": 34962,
      "byteStride": 8
    },
    {
      "buffer": 0,
      "byteOffset": 986864,
      "byteLength": 6720,
      "target": 34963
    },
    {
      "buffer": 0,
      "byteOffset": 993584,
      "byteLength": 7524,
      "target": 34962,
      "byteStride": 12
    },
    {
      "buffer": 0,
      "byteOffset": 1001108,
      "byteLength": 7524,
      "target": 34962,
      "byteStride": 12
    },
    {
      "buffer": 0,
      "byteOffset": 1008632,
      "byteLength": 5016,
      "target": 34962,
      "byteStride": 8
    },
    {
      "buffer": 0,
      "byteOffset": 1013648,
      "byteLength": 6912,
      "target": 34963
    },
    {
      "buffer": 0,
      "byteOffset": 1020560,
      "byteLength": 6912,
      "target": 34962,
      "byteStride": 12
    },
    {
      "buffer": 0,
      "byteOffset": 1027472,
      "byteLength": 6912,
      "target": 34962,
      "byteStride": 12
    },
    {
      "buffer": 0,
      "byteOffset": 1034384,
      "byteLength": 4608,
      "target": 34962,
      "byteStride": 8
    },
    {
      "buffer": 0,
      "byteOffset": 1038992,
      "byteLength": 6264,
      "target": 34963
    },
    {
      "buffer": 0,
      "byteOffset": 1045256,
      "byteLength": 48,
      "target": 34962,
      "byteStride": 12
    },
    {
      "buffer": 0,
      "byteOffset": 1045304,
      "byteLength": 48,
      "target": 34962,
      "byteStride": 12
    },
    {
      "buffer": 0,
      "byteOffset": 1045352,
      "byteLength": 32,
      "target": 34962,
      "byteStride": 8
    },
    {
      "buffer": 0,
      "byteOffset": 1045384,
      "byteLength": 12,
      "target": 34963
    }
  ],
  "buffers": [
    {
      "byteLength": 1045396,
      "uri": "data:application/octet-stream;base64,"
    }
  ],
  "accessors": [
    {
      "bufferView": 0,
      "componentType": 5126,
      "count": 24012,
      "max": [
        2.2696969509124756,
        2.826129913330078,
        0.035718001425266266
      ],
      "min": [
        -1.9232549667358398,
        -1.3984739780426025,
        -3.215001106262207
      ],
      "type": "VEC3"
    },
    {
      "bufferView": 1,
      "componentType": 5126,
      "count": 24012,
      "max": [
        0.9999908208847046,
        0.9999871253967285,
        1.0000001192092896
      ],
      "min": [
        -0.9999850392341614,
        -0.9999996423721313,
        -1
      ],
      "type": "VEC3"
    },
    {
      "bufferView": 2,
      "componentType": 5126,
      "count": 24012,
      "max": [
        1,
        1
      ],
      "min": [
        0,
        0
      ],
      "type": "VEC2"
    },
    {
      "bufferView": 3,
      "componentType": 5123,
      "count": 86172,
      "max": [
        24011
      ],
      "min": [
        0
      ],
      "type": "SCALAR"
    },
    {
      "bufferView": 4,
      "componentType": 5126,
      "count": 468,
      "max": [
        1,
        1.4652609825134277,
        0
      ],
      "min": [
        -1,
        -1.4652609825134277,
        -1
      ],
      "type": "VEC3"
    },
    {
      "bufferView": 5,
      "componentType": 5126,
      "count": 468,
      "max": [
        1,
        1.0000001192092896,
        1.0000001192092896
      ],
      "min": [
        -1,
        -1.0000001192092896,
        -1.0000001192092896
      ],
      "type": "VEC3"
    },
    {
      "bufferView": 6,
      "componentType": 5126,
      "count": 468,
      "max": [
        1,
        1
      ],
      "min": [
        0,
        0
      ],
      "type": "VEC2"
    },
    {
      "bufferView": 7,
      "componentType": 5123,
      "count": 1500,
      "max": [
        467
      ],
      "min": [
        0
      ],
      "type": "SCALAR"
    },
    {
      "bufferView": 8,
      "componentType": 5126,
      "count": 880,
      "max": [
        2.529033899307251,
        1.5933029651641846,
        0
      ],
      "min": [
        -1,
        -1.5,
        -1
      ],
      "type": "VEC3"
    },
    {
      "bufferView": 9,
      "componentType": 5126,
      "count": 880,
      "max": [
        1.0000001192092896,
        1,
        1.0000001192092896
      ],
      "min": [
        -1.0000001192092896,
        -1.0000001192092896,
        -1.0000001192092896
      ],
      "type": "VEC3"
    },
    {
      "bufferView": 10,
      "componentType": 5126,
      "count": 880,
      "max": [
        1,
        1.0088900327682495
      ],
      "min": [
        0,
        0
      ],
      "type": "VEC2"
    },
    {
      "bufferView": 11,
      "componentType": 5123,
      "count": 3360,
      "max": [
        879
      ],
      "min": [
        0
      ],
      "type": "SCALAR"
    },
    {
      "bufferView": 12,
      "componentType": 5126,
      "count": 627,
      "max": [
        1.178359031677246,
        1.3009779453277588,
        -1.3767939805984497
      ],
      "min": [
        0.10335899889469147,
        -0.5609769821166992,
        -3.015000104904175
      ],
      "type": "VEC3"
    },
    {
      "bufferView": 13,
      "componentType": 5126,
      "count": 627,
      "max": [
        0.9292945861816406,
        0.6201263070106506,
        0.2696438133716583
      ],
      "min": [
        0.784501850605011,
        0.3693394958972931,
        -0.26964908838272095
      ],
      "type": "VEC3"
    },
    {
      "bufferView": 14,
      "componentType": 5126,
      "count": 627,
      "max": [
        0.9916089773178101,
        0.9922059774398804
      ],
      "min": [
        0.006713999900966883,
        0.007794022560119629
      ],
      "type": "VEC2"
    },
    {
      "bufferView": 15,
      "componentType": 5123,
      "count": 3456,
      "max": [
        626
      ],
      "min": [
        0
      ],
      "type": "SCALAR"
    },
    {
      "bufferView": 16,
      "componentType": 5126,
      "count": 576,
      "max": [
        2.2828218936920166,
        1.0685820579528809,
        -0.19655899703502655
      ],
      "min": [
        0.918470025062561,
        -0.3185490071773529,
        -1.3039599657058716
      ],
      "type": "VEC3"
    },
    {
      "bufferView": 17,
      "componentType": 5126,
      "count": 576,
      "max": [
        0.9837720990180969,
        0.9837734699249268,
        0.9941515922546387
      ],
      "min": [
        -0.9913236498832703,
        -0.9837737679481506,
        -0.9837723970413208
      ],
      "type": "VEC3"
    },
    {
      "bufferView": 18,
      "componentType": 5126,
      "count": 576,
      "max": [
        0,
        1
      ],
      "min": [
        0,
        1
      ],
      "type": "VEC2"
    },
    {
      "bufferView": 19,
      "componentType": 5123,
      "count": 3132,
      "max": [
        575
      ],
      "min": [
        0
      ],
      "type": "SCALAR"
    },
    {
      "bufferView": 20,
      "componentType": 5126,
      "count": 4,
      "max": [
        0.46950799226760864,
        2.788599967956543,
        -0.22200000286102295
      ],
      "min": [
        -0.8822810053825378,
        1.5883779525756836,
        -0.22200000286102295
      ],
      "type": "VEC3"
    },
    {
      "bufferView": 21,
      "componentType": 5126,
      "count": 4,
      "max": [
        0,
        -1.6970160388041222e-8,
        -1
      ],
      "min": [
        0,
        -1.6970160388041222e-8,
        -1
      ],
      "type": "VEC3"
    },
    {
      "bufferView": 22,
      "componentType": 5126,
      "count": 4,
      "max": [
        0.9760259985923767,
        0.9891160130500793
      ],
      "min": [
        0.027713999152183533,
        0.02145099639892578
      ],
      "type": "VEC2"
    },
    {
      "bufferView": 23,
      "componentType": 5123,
      "count": 6,
      "max": [
        3
      ],
      "min": [
        0
      ],
      "type": "SCALAR"
    }
  ],
  "materials": [
    {
      "pbrMetallicRoughness": {
        "baseColorFactor": [
          0.01764666847884655,
          0.01764666847884655,
          0.01764666847884655,
          1
        ],
        "metallicFactor": 0,
        "roughnessFactor": 0.5
      },
      "doubleSided": true,
      "name": "body"
    },
    {
      "pbrMetallicRoughness": {
        "baseColorFactor": [
          0.03121648170053959,
          0.03121648170053959,
          0.03121648170053959,
          1
        ],
        "metallicFactor": 0,
        "roughnessFactor": 0.5
      },
      "doubleSided": true,
      "name": "bottomBody"
    },
    {
      "pbrMetallicRoughness": {
        "baseColorFactor": [
          0.8000000715255737,
          0.7138938307762146,
          0.4153445363044739,
          1
        ],
        "metallicFactor": 0,
        "roughnessFactor": 0.5
      },
      "doubleSided": true,
      "name": "WhiteBody"
    },
    {
      "pbrMetallicRoughness": {
        "metallicFactor": 0,
        "roughnessFactor": 0.5,
        "baseColorTexture": {
          "index": 0,
          "texCoord": 0
        }
      },
      "doubleSided": true,
      "name": "screen"
    },
    {
      "pbrMetallicRoughness": {
        "baseColorFactor": [
          1,
          0.06508518755435944,
          0.056176040321588516,
          1
        ],
        "metallicFactor": 0,
        "roughnessFactor": 0.5
      },
      "doubleSided": true,
      "name": "buttons"
    },
    {
      "pbrMetallicRoughness": {
        "metallicFactor": 0,
        "roughnessFactor": 0.5,
        "baseColorTexture": {
          "index": 1,
          "texCoord": 0
        }
      },
      "doubleSided": true,
      "name": "cassetCover"
    }
  ],
  "meshes": [
    {
      "primitives": [
        {
          "mode": 4,
          "attributes": {
            "POSITION": 0,
            "NORMAL": 1,
            "TEXCOORD_0": 2
          },
          "indices": 3,
          "material": 0
        }
      ]
    },
    {
      "primitives": [
        {
          "mode": 4,
          "attributes": {
            "POSITION": 4,
            "NORMAL": 5,
            "TEXCOORD_0": 6
          },
          "indices": 7,
          "material": 1
        }
      ]
    },
    {
      "primitives": [
        {
          "mode": 4,
          "attributes": {
            "POSITION": 8,
            "NORMAL": 9,
            "TEXCOORD_0": 10
          },
          "indices": 11,
          "material": 2
        }
      ]
    },
    {
      "primitives": [
        {
          "mode": 4,
          "attributes": {
            "POSITION": 12,
            "NORMAL": 13,
            "TEXCOORD_0": 14
          },
          "indices": 15,
          "material": 3
        }
      ]
    },
    {
      "primitives": [
        {
          "mode": 4,
          "attributes": {
            "POSITION": 16,
            "NORMAL": 17,
            "TEXCOORD_0": 18
          },
          "indices": 19,
          "material": 4
        }
      ]
    },
    {
      "primitives": [
        {
          "mode": 4,
          "attributes": {
            "POSITION": 20,
            "NORMAL": 21,
            "TEXCOORD_0": 22
          },
          "indices": 23,
          "material": 5
        }
      ]
    }
  ],
  "textures": [
    {
      "sampler": 0,
      "source": 0,
      "name": "mario"
    },
    {
      "sampler": 1,
      "source": 1,
      "name": "caset"
    }
  ],
  "samplers": [
    {
      "magFilter": 9729,
      "minFilter": 9987,
      "wrapS": 10497,
      "wrapT": 10497
    },
    {
      "magFilter": 9729,
      "minFilter": 9987,
      "wrapS": 10497,
      "wrapT": 10497
    }
  ],
  "images": [
    {
      "mimeType": "image/png",
      "uri": "data:image/png;base64,"
    },
    {
      "mimeType": "image/png",
      "uri": "data:image/png;base64,"
    }
  ]
}